<svg width="149" height="43" viewBox="0 0 149 43" fill="none" xmlns="http://www.w3.org/2000/svg">
<path fill-rule="evenodd" clip-rule="evenodd" d="M0 0H4.62564L10.6429 14.8116L16.6601 0H21.2857V21.2857H17.0286V10.4038L12.6078 21.2857H8.67794L4.25715 10.4038V21.2857H0V0Z" fill="black"/>
<path fill-rule="evenodd" clip-rule="evenodd" d="M85.1426 0H89.3013L102.171 14.7084V0H106.428V21.2857H102.27L89.3997 6.57734V21.2857H85.1426V0Z" fill="black"/>
<path fill-rule="evenodd" clip-rule="evenodd" d="M138.357 4.25715C134.83 4.25715 131.971 7.11613 131.971 10.6429C131.971 14.1696 134.83 17.0286 138.357 17.0286C141.883 17.0286 144.742 14.1696 144.742 10.6429C144.742 7.11613 141.883 4.25715 138.357 4.25715ZM127.714 10.6429C127.714 4.76497 132.479 0 138.357 0C144.235 0 149 4.76497 149 10.6429C149 16.5208 144.235 21.2857 138.357 21.2857C132.479 21.2857 127.714 16.5208 127.714 10.6429Z" fill="black"/>
<path fill-rule="evenodd" clip-rule="evenodd" d="M53.2151 4.25715C49.6884 4.25715 46.8294 7.11613 46.8294 10.6429C46.8294 14.1696 49.6884 17.0286 53.2151 17.0286C56.7419 17.0286 59.6009 14.1696 59.6009 10.6429C59.6009 7.11613 56.7419 4.25715 53.2151 4.25715ZM42.5723 10.6429C42.5723 4.76497 47.3372 0 53.2151 0C59.093 0 63.858 4.76497 63.858 10.6429C63.858 16.5208 59.093 21.2857 53.2151 21.2857C47.3372 21.2857 42.5723 16.5208 42.5723 10.6429Z" fill="black"/>
<path fill-rule="evenodd" clip-rule="evenodd" d="M57.4712 35.1245C57.4712 33.3611 56.0417 31.9316 54.2783 31.9316H47.8926V42.5745H50.0212V38.3174H52.1497L55.3426 42.5745H58.0033L54.7809 38.278C56.3055 38.0369 57.4712 36.7168 57.4712 35.1245ZM54.2783 36.1888H50.0212V34.0602H54.2783C54.8661 34.0602 55.3426 34.5367 55.3426 35.1245C55.3426 35.7123 54.8661 36.1888 54.2783 36.1888Z" fill="black"/>
<path fill-rule="evenodd" clip-rule="evenodd" d="M78.7573 35.1245C78.7573 33.3611 77.3278 31.9316 75.5644 31.9316H69.1787V42.5745H71.3073V38.3174H73.4359L76.6287 42.5745H79.2894L76.0671 38.278C77.5916 38.0369 78.7573 36.7168 78.7573 35.1245ZM75.5644 36.1888H71.3073V34.0602H75.5644C76.1522 34.0602 76.6287 34.5367 76.6287 35.1245C76.6287 35.7123 76.1522 36.1888 75.5644 36.1888Z" fill="black"/>
<path fill-rule="evenodd" clip-rule="evenodd" d="M90.4639 42.5735H92.8589L93.6947 40.4459H97.8759L98.7117 42.5735H101.107L96.7719 31.9316H94.7987L90.4639 42.5735ZM97.0396 38.3174L95.7853 35.1245L94.531 38.3174H97.0396Z" fill="black"/>
<path fill-rule="evenodd" clip-rule="evenodd" d="M117.071 34.0602C115.308 34.0602 113.879 35.4897 113.879 37.2531C113.879 39.0164 115.308 40.4459 117.071 40.4459C118.41 40.4459 119.558 39.6222 120.033 38.4502L122.006 39.2488C121.217 41.1971 119.306 42.5745 117.071 42.5745C114.132 42.5745 111.75 40.192 111.75 37.2531C111.75 34.3141 114.132 31.9316 117.071 31.9316C119.306 31.9316 121.217 33.3091 122.006 35.2573L120.033 36.056C119.558 34.8839 118.41 34.0602 117.071 34.0602Z" fill="black"/>
<path fill-rule="evenodd" clip-rule="evenodd" d="M5.32129 31.9316H15.9642V34.0602H11.707V42.5745H9.57844V34.0602H5.32129V31.9316Z" fill="black"/>
<path fill-rule="evenodd" clip-rule="evenodd" d="M26.6074 31.9316H37.2503V34.0602H28.736V36.1888H35.1217V38.3174H28.736V40.4459H37.2503V42.5745H26.6074V31.9316Z" fill="black"/>
<path fill-rule="evenodd" clip-rule="evenodd" d="M133.035 31.9316H143.678V34.0602H135.164V36.1888H141.549V38.3174H135.164V40.4459H143.678V42.5745H133.035V31.9316Z" fill="black"/>
</svg>
