<svg width="84" height="102" viewBox="0 0 84 102" fill="none" xmlns="http://www.w3.org/2000/svg">
<path fill-rule="evenodd" clip-rule="evenodd" d="M0 0L19.6154 24.5192L39.2308 0V39.2308H31.3846V22.3677L19.6154 37.0792L7.84616 22.3677V39.2308H0V0Z" fill="black"/>
<path fill-rule="evenodd" clip-rule="evenodd" d="M0 44.4609L31.3846 67.9994V44.4609H39.2308V83.6917L7.84616 60.1532V83.6917H0V44.4609Z" fill="black"/>
<path fill-rule="evenodd" clip-rule="evenodd" d="M64.0773 7.84616C57.5773 7.84616 52.3081 13.1154 52.3081 19.6154C52.3081 26.1154 57.5773 31.3846 64.0773 31.3846C70.5773 31.3846 75.8465 26.1154 75.8465 19.6154C75.8465 13.1154 70.5773 7.84616 64.0773 7.84616ZM44.4619 19.6154C44.4619 8.78211 53.244 0 64.0773 0C74.9106 0 83.6927 8.78211 83.6927 19.6154C83.6927 30.4487 74.9106 39.2308 64.0773 39.2308C53.244 39.2308 44.4619 30.4487 44.4619 19.6154Z" fill="black"/>
<path fill-rule="evenodd" clip-rule="evenodd" d="M64.0773 52.3071C57.5773 52.3071 52.3081 57.5764 52.3081 64.0763C52.3081 70.5763 57.5773 75.8456 64.0773 75.8456C70.5773 75.8456 75.8465 70.5763 75.8465 64.0763C75.8465 57.5764 70.5773 52.3071 64.0773 52.3071ZM44.4619 64.0763C44.4619 53.243 53.244 44.4609 64.0773 44.4609C74.9106 44.4609 83.6927 53.243 83.6927 64.0763C83.6927 74.9096 74.9106 83.6917 64.0773 83.6917C53.244 83.6917 44.4619 74.9096 44.4619 64.0763Z" fill="black"/>
<path d="M0 95.7235H3.34769V102H5.02154V95.7235H8.36923V94.1543H0V95.7235Z" fill="black"/>
<path d="M20.9231 94.1543V95.7235H14.2277V97.2928H19.2492V98.862H14.2277V100.431H20.9231V102H12.5538V94.1543H20.9231Z" fill="black"/>
<path d="M32.64 96.5081C32.64 96.8939 32.5458 97.2535 32.3575 97.587C32.1762 97.9205 31.9251 98.1983 31.6043 98.4206C31.2835 98.6364 30.9243 98.7737 30.5268 98.8326L33.0585 102H30.9662L28.4554 98.862H26.7815V102H25.1077V94.1543H30.1292C30.5826 94.1543 31.001 94.2589 31.3846 94.4681C31.7752 94.6774 32.0821 94.9651 32.3052 95.3312C32.5284 95.6908 32.64 96.0831 32.64 96.5081ZM30.1292 97.2928C30.3594 97.2928 30.5547 97.2176 30.7151 97.0672C30.8825 96.9103 30.9662 96.7239 30.9662 96.5081C30.9662 96.2924 30.8825 96.1093 30.7151 95.9589C30.5547 95.802 30.3594 95.7235 30.1292 95.7235H26.7815V97.2928H30.1292Z" fill="black"/>
<path d="M45.1938 96.5081C45.1938 96.8939 45.0997 97.2535 44.9114 97.587C44.7301 97.9205 44.479 98.1983 44.1582 98.4206C43.8373 98.6364 43.4782 98.7737 43.0806 98.8326L45.6123 102H43.52L41.0092 98.862H39.3354V102H37.6615V94.1543H42.6831C43.1364 94.1543 43.5549 94.2589 43.9385 94.4681C44.329 94.6774 44.6359 94.9651 44.8591 95.3312C45.0823 95.6908 45.1938 96.0831 45.1938 96.5081ZM42.6831 97.2928C42.9132 97.2928 43.1085 97.2176 43.2689 97.0672C43.4363 96.9103 43.52 96.7239 43.52 96.5081C43.52 96.2924 43.4363 96.1093 43.2689 95.9589C43.1085 95.802 42.9132 95.7235 42.6831 95.7235H39.3354V97.2928H42.6831Z" fill="black"/>
<path d="M52.0985 102L52.7575 100.431H56.0425L56.7015 102H58.5846L55.1742 94.1543H53.6259L50.2154 102H52.0985ZM53.4166 98.862L54.4 96.5081L55.3834 98.862H53.4166Z" fill="black"/>
<path d="M66.9538 95.7235C67.4769 95.7235 67.9477 95.8608 68.3662 96.1355C68.7916 96.4035 69.0985 96.7566 69.2868 97.1947L70.8351 96.6062C70.6328 96.1289 70.3364 95.7072 69.9459 95.341C69.5553 94.9683 69.102 94.6774 68.5859 94.4681C68.0697 94.2589 67.5257 94.1543 66.9538 94.1543C66.1936 94.1543 65.4927 94.3308 64.8511 94.6839C64.2164 95.037 63.7108 95.5143 63.3342 96.1158C62.9575 96.7108 62.7692 97.3647 62.7692 98.0774C62.7692 98.7901 62.9575 99.4472 63.3342 100.049C63.7108 100.644 64.2164 101.118 64.8511 101.471C65.4927 101.824 66.1936 102 66.9538 102C67.5257 102 68.0697 101.896 68.5859 101.687C69.102 101.477 69.5553 101.19 69.9459 100.824C70.3364 100.451 70.6328 100.026 70.8351 99.5485L69.2868 98.9601C69.0985 99.3981 68.7916 99.7545 68.3662 100.029C67.9477 100.297 67.4769 100.431 66.9538 100.431C66.5005 100.431 66.0786 100.327 65.688 100.117C65.3044 99.9081 65.001 99.6237 64.7778 99.2641C64.5547 98.898 64.4431 98.5024 64.4431 98.0774C64.4431 97.6524 64.5547 97.2601 64.7778 96.9005C65.001 96.5343 65.3044 96.2466 65.688 96.0374C66.0786 95.8281 66.5005 95.7235 66.9538 95.7235Z" fill="black"/>
<path d="M83.6923 94.1543V95.7235H76.9969V97.2928H82.0185V98.862H76.9969V100.431H83.6923V102H75.3231V94.1543H83.6923Z" fill="black"/>
</svg>
